<svg width="271.7282669067383" height="65.30291133775609" viewBox="0 0 370.5 89.04016106260548" class="looka-1j8o68f"><defs id="SvgjsDefs1013"></defs><g id="SvgjsG1014" featurekey="symbolFeature-0" transform="matrix(1.1261736089392387,0,0,1.1261736089392387,-37.20187767610823,-38.97707856987499)" fill="#8dc6ff"><path xmlns="http://www.w3.org/2000/svg" fill="#8dc6ff" d="M45.08 102.9q.71-3.36 3.47-4.14c7.22-2.06 9.1 10.25.76 9.86q-3.09-.14-4.47-4.03-.16-.45-.64-.37-3.05.51-5.03.1a1.94 1.93 6.1 0 1-1.53-1.89V75.14a.42.42 0 0 0-.46-.42q-1.5.19-1.87.11-4.2-.88-.65-3.18l5.78-3.73a.81.79-17 0 0 .37-.67V53.57q0-1.92 1.92-1.92h5.58q1.92 0 1.92 1.93v7.2a.46.46 0 0 0 .71.39l20.61-13.24a1.49 1.48-44.7 0 1 1.61 0l8.83 5.77a.3.3 0 0 0 .46-.25V40.36a1.31 1.31 0 0 1 1.31-1.31h9.78a1.58 1.57-90 0 1 1.57 1.58v20.84a1.49 1.47 16.7 0 0 .68 1.24l14.25 9.3a1.43 1.43 0 0 1 .55.7q.83 2.26-3.24 2.01-1.06-.07-1.06 1v26.52a2.19 2.19 0 0 1-2.19 2.19h-2.03a1.48 1.47-88.5 0 1-1.47-1.56c.45-8.38-9.61-9.64-10.63-1.13q-.19 1.61.49.14 1.32-2.84 3.8-3.22c5.44-.83 7.91 6.64 3.29 9.38-2.9 1.72-6.5.23-7.47-3.05q-.13-.47-.61-.47H56.36a1.04 1.03 1.6 0 1-1.04-1.09c.23-4.24-2.54-9.25-7.55-7.11q-3.85 1.64-2.96 6.58.12.7.27 0m40.41-61.21a.33.33 0 0 0-.33.33v13.51a.33.33 0 0 0 .15.28l6.58 4.3a.33.33 0 0 0 .51-.28V42.02a.33.33 0 0 0-.33-.33zm16.76 30.32q1.44.01 1.48 0 .79-.24.14-.66L72.8 51.06a.83.82-44.5 0 0-.91 0L40 71.54q-.79.51.16.51 34.89-.22 62.09-.04M44.2 54.34q-.63 0-.63.62v9.85q0 .98.82.45l2.3-1.47q.79-.51.79-1.44v-7.3q0-.71-.71-.71zm1.53 34.63v-13.7a.46.46 0 0 0-.46-.46h-4.36q-.54 0-.54.53v25.99a.56.55-15.5 0 0 .84.47l.22-.14a.59.5-17.6 0 0 .29-.46q.03-6.21 5.85-7.71 5.86-1.49 9.77 4.15.3.43.3-.09v-6.9q0-.52-.52-.52H46.89a1.16 1.16 0 0 1-1.16-1.16m51.99-.46a1.54 1.54 0 0 1-1.54 1.54H64.11q-.57 0-.57.57v10.72q0 .53.54.53h22.69q.5 0 .53-.5c.42-9.09 11.77-11.37 15.4-3.16q.88 2 .88-.19V75.19a.39.39 0 0 0-.39-.39H98.2q-.48 0-.48.48zM57.66 76.1a.46.46 0 0 0-.46-.46h-8.26a.46.46 0 0 0-.46.46v10.82a.46.46 0 0 0 .46.46h8.26a.46.46 0 0 0 .46-.46zm22.32-.046a.45.45 0 0 0-.45-.45l-15.44-.028a.45.45 0 0 0-.45.45l-.02 10.88a.45.45 0 0 0 .45.45l15.44.028a.45.45 0 0 0 .45-.45zm15.14-.015a.41.41 0 0 0-.41-.41l-11.62.021a.41.41 0 0 0-.41.41l.02 10.88a.41.41 0 0 0 .41.41l11.62-.02a.41.41 0 0 0 .41-.41zM51.93 103.7a2.06 2.06 0 0 0-2.06-2.06 2.06 2.06 0 0 0-2.06 2.06 2.06 2.06 0 0 0 2.06 2.06 2.06 2.06 0 0 0 2.06-2.06m45.2.02a2.12 2.12 0 0 0-2.12-2.12 2.12 2.12 0 0 0-2.12 2.12 2.12 2.12 0 0 0 2.12 2.12 2.12 2.12 0 0 0 2.12-2.12"></path></svg>